# xmcd CD database file
#
# Track frame offsets:
#	150
#	19255
#	33341
#	47455
#	63302
#	81685
#	93087
#	111477
#	128876
#	142929
#	157950
#	178602
#	193094
#
# Disc length: 2849 seconds
#
# Revision: 0
# Processed by: cddbd v1.5.2PL0 Copyright (c) Steve Scherf et al.
# Submitted via: CDex 1.51
#
DISCID=ac0b1f0d
DTITLE=Michael Buble - Crazy Love (Bonus Track Version)
DYEAR=2009
DGENRE=Jazz
TTITLE0=Cry Me a River
TTITLE1=All of Me
TTITLE2=Georgia On My Mind
TTITLE3=Crazy Love
TTITLE4=Haven't Met You Yet
TTITLE5=All I Do Is Dream of You
TTITLE6=Hold On
TTITLE7=Heartache Tonight
TTITLE8=You're Nobody Till Somebody Loves You
TTITLE9=Baby (You've Got What It Takes) [with Sharon Jones and the Dap-Kings]
TTITLE10=At This Moment
TTITLE11=Stardust (with Naturally 7)
TTITLE12=Whatever It Takes (with Ron Sexsmith)
EXTD=YEAR: 2009
EXTT0=
EXTT1=
EXTT2=
EXTT3=
EXTT4=
EXTT5=
EXTT6=
EXTT7=
EXTT8=
EXTT9=
EXTT10=
EXTT11=
EXTT12=
PLAYORDER=
